<svg xmlns="http://www.w3.org/2000/svg" version="1.1" xmlns:xlink="http://www.w3.org/1999/xlink" xmlns:svgjs="http://svgjs.dev/svgjs" width="1000" height="623" viewBox="0 0 1000 623"><g transform="matrix(1,0,0,1,-0.6060606060606233,0.2522267206477409)"><svg viewBox="0 0 396 247" data-background-color="#ffffff" preserveAspectRatio="xMidYMid meet" height="623" width="1000" xmlns="http://www.w3.org/2000/svg" xmlns:xlink="http://www.w3.org/1999/xlink"><g id="tight-bounds" transform="matrix(1,0,0,1,0.2400000000000091,-0.09999999999999432)"><svg viewBox="0 0 395.52 247.2" height="247.2" width="395.52"><g><svg></svg></g><g><svg viewBox="0 0 395.52 247.2" height="247.2" width="395.52"><mask id="c166835a-c28d-454f-ab89-a723a433d024"><rect width="395.52" height="247.2" fill="white"></rect><g transform="matrix(1,0,0,1,7.326484682507527,37.08)" id="clone"><svg viewBox="0 0 380.8670306349849 173.04" height="173.04" width="380.8670306349849"><g><svg viewBox="0 0 380.8670306349849 173.04" height="173.04" width="380.8670306349849"><g><svg viewBox="0 0 395.52 179.69730980887192" height="173.04" width="380.8670306349849"><g><svg viewBox="0 0 395.52 179.69730980887192" height="179.69730980887192" width="395.52"><g id="SvgjsG1622"><svg viewBox="0 0 395.52 179.69730980887192" height="179.69730980887192" width="395.52" id="SvgjsSvg1621"><g><svg viewBox="0 0 395.52 107.62528301886792" height="107.62528301886792" width="395.52"><g transform="matrix(1,0,0,1,0,0)"><svg width="395.52" viewBox="-1.399999976158142 -42.45000076293945 170.58999633789062 47.150001525878906" height="107.62528301886792" data-palette-color="#ffffff"><path d="M1.6-36.8L10.3-36.8 21.05-10.3 16.85-11.15 26.6-36.8 35.2-36.8 18.4 1.7 1.6-36.8ZM43.35 0.6L43.35 0.6Q40.3 0.6 37.82-0.63 35.35-1.85 33.9-4.4 32.45-6.95 32.45-10.9L32.45-10.9Q32.45-14.6 33.95-17.3 35.45-20 37.9-21.48 40.35-22.95 43.1-22.95L43.1-22.95Q46.35-22.95 48.02-21.88 49.7-20.8 50.8-19.5L50.8-19.5 50.5-18.65 51.15-21.85 57.65-21.85 57.65 0 50.65 0 50.65-4.75 51.2-3.25Q51.1-3.25 50.6-2.68 50.1-2.1 49.12-1.33 48.15-0.55 46.72 0.03 45.3 0.6 43.35 0.6ZM45.35-5.1L45.35-5.1Q46.6-5.1 47.6-5.48 48.6-5.85 49.35-6.58 50.1-7.3 50.65-8.4L50.65-8.4 50.65-13.75Q50.25-14.85 49.45-15.63 48.65-16.4 47.55-16.82 46.45-17.25 45.1-17.25L45.1-17.25Q43.6-17.25 42.32-16.48 41.05-15.7 40.3-14.35 39.55-13 39.55-11.25L39.55-11.25Q39.55-9.5 40.35-8.1 41.15-6.7 42.47-5.9 43.8-5.1 45.35-5.1ZM64.84-21.85L71.15-21.85 71.8-15.85 71.65-16.75Q72.59-18.7 74.25-20.08 75.9-21.45 77.52-22.2 79.15-22.95 80-22.95L80-22.95 79.65-15.95Q77.2-16.25 75.45-15.15 73.7-14.05 72.75-12.25 71.8-10.45 71.8-8.55L71.8-8.55 71.8 0 64.84 0 64.84-21.85ZM85.34 0L85.34-39.45 92.34-39.45 92.34 0 85.34 0ZM108.74 0.6L108.74 0.6Q105.69 0.6 103.22-0.63 100.74-1.85 99.29-4.4 97.84-6.95 97.84-10.9L97.84-10.9Q97.84-14.6 99.34-17.3 100.84-20 103.29-21.48 105.74-22.95 108.49-22.95L108.49-22.95Q111.74-22.95 113.42-21.88 115.09-20.8 116.19-19.5L116.19-19.5 115.89-18.65 116.54-21.85 123.04-21.85 123.04 0 116.04 0 116.04-4.75 116.59-3.25Q116.49-3.25 115.99-2.68 115.49-2.1 114.52-1.33 113.54-0.55 112.12 0.03 110.69 0.6 108.74 0.6ZM110.74-5.1L110.74-5.1Q111.99-5.1 112.99-5.48 113.99-5.85 114.74-6.58 115.49-7.3 116.04-8.4L116.04-8.4 116.04-13.75Q115.64-14.85 114.84-15.63 114.04-16.4 112.94-16.82 111.84-17.25 110.49-17.25L110.49-17.25Q108.99-17.25 107.72-16.48 106.44-15.7 105.69-14.35 104.94-13 104.94-11.25L104.94-11.25Q104.94-9.5 105.74-8.1 106.54-6.7 107.87-5.9 109.19-5.1 110.74-5.1ZM130.24-21.85L136.59-21.85 137.14-18 137.04-18.3Q138.34-20.5 140.29-21.73 142.24-22.95 144.99-22.95L144.99-22.95Q146.79-22.95 148.16-22.45 149.54-21.95 150.49-20.98 151.44-20 151.79-18.45L151.79-18.45 151.54-18.4Q152.94-20.45 154.91-21.7 156.89-22.95 159.04-22.95L159.04-22.95Q162.29-22.95 164.21-21.13 166.14-19.3 166.19-16.4L166.19-16.4 166.19 0 159.24 0 159.24-13.5Q159.19-14.95 158.79-15.88 158.39-16.8 156.94-16.9L156.94-16.9Q155.24-16.9 154.06-15.73 152.89-14.55 152.31-12.73 151.74-10.9 151.74-8.95L151.74-8.95 151.74 0 144.74 0 144.74-13.5Q144.69-14.95 144.21-15.88 143.74-16.8 142.29-16.9L142.29-16.9Q140.64-16.9 139.51-15.73 138.39-14.55 137.81-12.75 137.24-10.95 137.24-9.05L137.24-9.05 137.24 0 130.24 0 130.24-21.85Z" opacity="1" transform="matrix(1,0,0,1,0,0)" fill="black" class="wordmark-text-0" id="SvgjsPath1620" stroke-width="5" stroke="black" stroke-linejoin="round"></path></svg></g></svg></g><g transform="matrix(1,0,0,1,2.5,121.62886591245282)"><svg viewBox="0 0 390.52 58.06844389641911" height="58.06844389641911" width="390.52"><g transform="matrix(1,0,0,1,0,0)"><svg width="390.52" viewBox="-1.9800000190734863 -42.04999923706055 375.8980712890625 56.75" height="58.06844389641911" data-palette-color="#ffffff"><path d="M10.6 0L10.6 0Q10.1 0 9.73-0.25 9.35-0.5 9.2-0.95L9.2-0.95 1.1-25.2Q0.9-26.3 1.2-26.83 1.5-27.35 2.25-27.35L2.25-27.35Q2.65-27.35 3.05-27.13 3.45-26.9 3.65-26.45L3.65-26.45 11.05-4.15 10.4-4.15 17.2-26.15Q17.35-26.7 17.75-27.03 18.15-27.35 18.7-27.35L18.7-27.35Q19.25-27.35 19.63-27.03 20-26.7 20.2-26.15L20.2-26.15 27.2-4.15 26.3-4.15 33.7-26.45Q34.1-27.35 35.1-27.35L35.1-27.35Q36-27.35 36.33-26.65 36.65-25.95 36.3-25.2L36.3-25.2 28.25-0.95Q28.1-0.5 27.73-0.25 27.35 0 26.8 0L26.8 0Q26.3 0 25.9-0.25 25.5-0.5 25.4-0.95L25.4-0.95 18.25-23.15 18.9-23.15 12-0.95Q11.8-0.45 11.43-0.23 11.05 0 10.6 0ZM53.05 0.25L53.05 0.25Q49.1 0.25 46.02-1.53 42.95-3.3 41.2-6.45 39.45-9.6 39.45-13.65L39.45-13.65Q39.45-17.75 41.1-20.88 42.75-24 45.65-25.8 48.55-27.6 52.3-27.6L52.3-27.6Q56-27.6 58.85-25.88 61.7-24.15 63.3-21.13 64.9-18.1 64.9-14.15L64.9-14.15Q64.9-13.5 64.5-13.13 64.1-12.75 63.45-12.75L63.45-12.75 41.45-12.75 41.45-15.35 64.25-15.35 62.05-13.7Q62.15-16.95 60.95-19.45 59.75-21.95 57.52-23.38 55.3-24.8 52.3-24.8L52.3-24.8Q49.45-24.8 47.22-23.38 45-21.95 43.72-19.45 42.45-16.95 42.45-13.65L42.45-13.65Q42.45-10.4 43.8-7.9 45.15-5.4 47.55-3.98 49.95-2.55 53.05-2.55L53.05-2.55Q55-2.55 56.97-3.23 58.95-3.9 60.1-5L60.1-5Q60.5-5.4 61.07-5.43 61.65-5.45 62.05-5.1L62.05-5.1Q62.6-4.65 62.62-4.1 62.65-3.55 62.15-3.1L62.15-3.1Q60.55-1.65 57.97-0.7 55.4 0.25 53.05 0.25ZM85.35 0.3L85.35 0.3Q81.45 0.3 78.3-1.5 75.15-3.3 73.32-6.4 71.5-9.5 71.4-13.4L71.4-13.4 71.4-37.55Q71.4-38.25 71.82-38.65 72.25-39.05 72.9-39.05L72.9-39.05Q73.6-39.05 74-38.65 74.4-38.25 74.4-37.55L74.4-37.55 74.4-21.95Q76-24.55 78.87-26.1 81.75-27.65 85.35-27.65L85.35-27.65Q89.35-27.65 92.52-25.83 95.7-24 97.52-20.85 99.35-17.7 99.35-13.7L99.35-13.7Q99.35-9.7 97.52-6.53 95.7-3.35 92.52-1.53 89.35 0.3 85.35 0.3ZM85.35-2.5L85.35-2.5Q88.5-2.5 90.97-3.98 93.45-5.45 94.9-7.98 96.35-10.5 96.35-13.7L96.35-13.7Q96.35-16.9 94.9-19.4 93.45-21.9 90.97-23.38 88.5-24.85 85.35-24.85L85.35-24.85Q82.25-24.85 79.75-23.38 77.25-21.9 75.82-19.4 74.4-16.9 74.4-13.7L74.4-13.7Q74.4-10.5 75.82-7.98 77.25-5.45 79.75-3.98 82.25-2.5 85.35-2.5ZM133.99 0.3L133.99 0.3Q129.99 0.3 126.82-1.53 123.64-3.35 121.82-6.53 119.99-9.7 119.99-13.7L119.99-13.7Q119.99-17.7 121.82-20.85 123.64-24 126.82-25.83 129.99-27.65 133.99-27.65L133.99-27.65Q137.59-27.65 140.47-26.1 143.34-24.55 144.94-21.95L144.94-21.95 144.94-37.55Q144.94-38.25 145.37-38.65 145.79-39.05 146.44-39.05L146.44-39.05Q147.14-39.05 147.54-38.65 147.94-38.25 147.94-37.55L147.94-37.55 147.94-13.4Q147.89-9.5 146.04-6.4 144.19-3.3 141.07-1.5 137.94 0.3 133.99 0.3ZM133.99-2.5L133.99-2.5Q137.14-2.5 139.62-3.98 142.09-5.45 143.52-7.98 144.94-10.5 144.94-13.7L144.94-13.7Q144.94-16.9 143.52-19.4 142.09-21.9 139.62-23.38 137.14-24.85 133.99-24.85L133.99-24.85Q130.89-24.85 128.39-23.38 125.89-21.9 124.44-19.4 122.99-16.9 122.99-13.7L122.99-13.7Q122.99-10.5 124.44-7.98 125.89-5.45 128.39-3.98 130.89-2.5 133.99-2.5ZM169.04 0.25L169.04 0.25Q165.09 0.25 162.01-1.53 158.94-3.3 157.19-6.45 155.44-9.6 155.44-13.65L155.44-13.65Q155.44-17.75 157.09-20.88 158.74-24 161.64-25.8 164.54-27.6 168.29-27.6L168.29-27.6Q171.99-27.6 174.84-25.88 177.69-24.15 179.29-21.13 180.89-18.1 180.89-14.15L180.89-14.15Q180.89-13.5 180.49-13.13 180.09-12.75 179.44-12.75L179.44-12.75 157.44-12.75 157.44-15.35 180.24-15.35 178.04-13.7Q178.14-16.95 176.94-19.45 175.74-21.95 173.51-23.38 171.29-24.8 168.29-24.8L168.29-24.8Q165.44-24.8 163.21-23.38 160.99-21.95 159.71-19.45 158.44-16.95 158.44-13.65L158.44-13.65Q158.44-10.4 159.79-7.9 161.14-5.4 163.54-3.98 165.94-2.55 169.04-2.55L169.04-2.55Q170.99-2.55 172.96-3.23 174.94-3.9 176.09-5L176.09-5Q176.49-5.4 177.06-5.43 177.64-5.45 178.04-5.1L178.04-5.1Q178.59-4.65 178.61-4.1 178.64-3.55 178.14-3.1L178.14-3.1Q176.54-1.65 173.96-0.7 171.39 0.25 169.04 0.25ZM195.79 0.05L195.79 0.05Q194.84 0.05 194.39-1L194.39-1 182.99-25.4Q182.79-25.95 182.99-26.48 183.19-27 183.74-27.25L183.74-27.25Q184.29-27.5 184.81-27.3 185.34-27.1 185.59-26.55L185.59-26.55 196.79-2.35 194.94-2.35 205.94-26.6Q206.19-27.15 206.76-27.35 207.34-27.55 207.89-27.3L207.89-27.3Q208.44-27.05 208.66-26.53 208.89-26 208.64-25.45L208.64-25.45 197.39-1Q196.89 0.05 195.79 0.05ZM225.33 0.25L225.33 0.25Q221.38 0.25 218.31-1.53 215.23-3.3 213.48-6.45 211.73-9.6 211.73-13.65L211.73-13.65Q211.73-17.75 213.38-20.88 215.03-24 217.93-25.8 220.83-27.6 224.58-27.6L224.58-27.6Q228.28-27.6 231.13-25.88 233.98-24.15 235.58-21.13 237.18-18.1 237.18-14.15L237.18-14.15Q237.18-13.5 236.78-13.13 236.38-12.75 235.73-12.75L235.73-12.75 213.73-12.75 213.73-15.35 236.53-15.35 234.33-13.7Q234.43-16.95 233.23-19.45 232.03-21.95 229.81-23.38 227.58-24.8 224.58-24.8L224.58-24.8Q221.73-24.8 219.51-23.38 217.28-21.95 216.01-19.45 214.73-16.95 214.73-13.65L214.73-13.65Q214.73-10.4 216.08-7.9 217.43-5.4 219.83-3.98 222.23-2.55 225.33-2.55L225.33-2.55Q227.28-2.55 229.26-3.23 231.23-3.9 232.38-5L232.38-5Q232.78-5.4 233.36-5.43 233.93-5.45 234.33-5.1L234.33-5.1Q234.88-4.65 234.91-4.1 234.93-3.55 234.43-3.1L234.43-3.1Q232.83-1.65 230.26-0.7 227.68 0.25 225.33 0.25ZM250.18 0L249.18 0Q247.28 0 245.81-1.05 244.33-2.1 243.51-3.95 242.68-5.8 242.68-8.25L242.68-8.25 242.68-37.55Q242.68-38.25 243.11-38.65 243.53-39.05 244.18-39.05L244.18-39.05Q244.88-39.05 245.28-38.65 245.68-38.25 245.68-37.55L245.68-37.55 245.68-8.25Q245.68-5.95 246.66-4.48 247.63-3 249.18-3L249.18-3 250.43-3Q250.98-3 251.33-2.6 251.68-2.2 251.68-1.5L251.68-1.5Q251.68-0.85 251.28-0.43 250.88 0 250.18 0L250.18 0ZM268.18 0.3L268.18 0.3Q264.18 0.3 261-1.53 257.83-3.35 256-6.53 254.18-9.7 254.18-13.65L254.18-13.65Q254.18-17.65 256-20.83 257.83-24 261-25.83 264.18-27.65 268.18-27.65L268.18-27.65Q272.18-27.65 275.33-25.83 278.48-24 280.3-20.83 282.13-17.65 282.13-13.65L282.13-13.65Q282.13-9.7 280.3-6.53 278.48-3.35 275.33-1.53 272.18 0.3 268.18 0.3ZM268.18-2.5L268.18-2.5Q271.33-2.5 273.8-3.98 276.28-5.45 277.7-7.98 279.13-10.5 279.13-13.7L279.13-13.7Q279.13-16.85 277.7-19.38 276.28-21.9 273.8-23.38 271.33-24.85 268.18-24.85L268.18-24.85Q265.08-24.85 262.58-23.38 260.08-21.9 258.63-19.38 257.18-16.85 257.18-13.65L257.18-13.65Q257.18-10.5 258.63-7.98 260.08-5.45 262.58-3.98 265.08-2.5 268.18-2.5ZM291.13 11.7L291.13 11.7Q290.48 11.7 290.05 11.28 289.63 10.85 289.63 10.2L289.63 10.2 289.63-13.95Q289.73-17.9 291.55-20.98 293.38-24.05 296.53-25.85 299.68-27.65 303.58-27.65L303.58-27.65Q307.58-27.65 310.75-25.83 313.93-24 315.75-20.83 317.58-17.65 317.58-13.65L317.58-13.65Q317.58-9.7 315.75-6.53 313.93-3.35 310.75-1.53 307.58 0.3 303.58 0.3L303.58 0.3Q299.98 0.3 297.1-1.25 294.23-2.8 292.63-5.4L292.63-5.4 292.63 10.2Q292.63 10.85 292.23 11.28 291.83 11.7 291.13 11.7ZM303.58-2.5L303.58-2.5Q306.73-2.5 309.2-3.98 311.68-5.45 313.13-7.98 314.58-10.5 314.58-13.65L314.58-13.65Q314.58-16.85 313.13-19.38 311.68-21.9 309.2-23.38 306.73-24.85 303.58-24.85L303.58-24.85Q300.48-24.85 297.98-23.38 295.48-21.9 294.05-19.38 292.63-16.85 292.63-13.65L292.63-13.65Q292.63-10.5 294.05-7.98 295.48-5.45 297.98-3.98 300.48-2.5 303.58-2.5ZM337.17 0.25L337.17 0.25Q333.22 0.25 330.15-1.53 327.07-3.3 325.32-6.45 323.57-9.6 323.57-13.65L323.57-13.65Q323.57-17.75 325.22-20.88 326.87-24 329.77-25.8 332.67-27.6 336.42-27.6L336.42-27.6Q340.12-27.6 342.97-25.88 345.82-24.15 347.42-21.13 349.02-18.1 349.02-14.15L349.02-14.15Q349.02-13.5 348.62-13.13 348.22-12.75 347.57-12.75L347.57-12.75 325.57-12.75 325.57-15.35 348.37-15.35 346.17-13.7Q346.27-16.95 345.07-19.45 343.87-21.95 341.65-23.38 339.42-24.8 336.42-24.8L336.42-24.8Q333.57-24.8 331.35-23.38 329.12-21.95 327.85-19.45 326.57-16.95 326.57-13.65L326.57-13.65Q326.57-10.4 327.92-7.9 329.27-5.4 331.67-3.98 334.07-2.55 337.17-2.55L337.17-2.55Q339.12-2.55 341.1-3.23 343.07-3.9 344.22-5L344.22-5Q344.62-5.4 345.2-5.43 345.77-5.45 346.17-5.1L346.17-5.1Q346.72-4.65 346.75-4.1 346.77-3.55 346.27-3.1L346.27-3.1Q344.67-1.65 342.1-0.7 339.52 0.25 337.17 0.25ZM358.52-16.7L356.52-16.7Q356.82-19.9 358.27-22.38 359.72-24.85 362.02-26.25 364.32-27.65 367.12-27.65L367.12-27.65Q369.02-27.65 370.07-27.2 371.12-26.75 370.87-25.6L370.87-25.6Q370.72-24.85 370.17-24.7 369.62-24.55 368.85-24.68 368.07-24.8 367.12-24.8L367.12-24.8Q364.62-24.8 362.67-23.75 360.72-22.7 359.62-20.88 358.52-19.05 358.52-16.7L358.52-16.7ZM357.02 0L357.02 0Q356.37 0 355.95-0.43 355.52-0.85 355.52-1.5L355.52-1.5 355.52-25.85Q355.52-26.55 355.95-26.95 356.37-27.35 357.02-27.35L357.02-27.35Q357.72-27.35 358.12-26.95 358.52-26.55 358.52-25.85L358.52-25.85 358.52-1.5Q358.52-0.85 358.12-0.43 357.72 0 357.02 0Z" opacity="1" transform="matrix(1,0,0,1,0,0)" fill="black" class="slogan-text-1" id="SvgjsPath1619" stroke-width="5" stroke="black" stroke-linejoin="round"></path></svg></g></svg></g></svg></g></svg></g></svg></g></svg></g></svg></g></mask><g mask="url(#c166835a-c28d-454f-ab89-a723a433d024)"><g><path xmlns="http://www.w3.org/2000/svg" d="M89.891 0h55.861l69.023 170.151-26.967-5.458 62.602-164.693h55.219l-107.869 247.2z" fill="#ffffff" fill-rule="nonzero" stroke="none" stroke-width="1" stroke-linecap="butt" stroke-linejoin="miter" stroke-miterlimit="10" stroke-dasharray="" stroke-dashoffset="0" font-family="none" font-weight="none" font-size="none" text-anchor="none" style="mix-blend-mode: normal" data-fill-palette-color="tertiary"></path></g></g><g transform="matrix(1,0,0,1,7.326484682507527,37.08)"><svg viewBox="0 0 380.8670306349849 173.04" height="173.04" width="380.8670306349849"><g><svg viewBox="0 0 380.8670306349849 173.04" height="173.04" width="380.8670306349849"><g><svg viewBox="0 0 395.52 179.69730980887192" height="173.04" width="380.8670306349849"><g><svg viewBox="0 0 395.52 179.69730980887192" height="179.69730980887192" width="395.52"><g id="textblocktransform"><svg viewBox="0 0 395.52 179.69730980887192" height="179.69730980887192" width="395.52" id="textblock"><g><svg viewBox="0 0 395.52 107.62528301886792" height="107.62528301886792" width="395.52"><g transform="matrix(1,0,0,1,0,0)"><svg width="395.52" viewBox="-1.399999976158142 -42.45000076293945 170.58999633789062 47.150001525878906" height="107.62528301886792" data-palette-color="#ffffff"><path d="M1.6-36.8L10.3-36.8 21.05-10.3 16.85-11.15 26.6-36.8 35.2-36.8 18.4 1.7 1.6-36.8ZM43.35 0.6L43.35 0.6Q40.3 0.6 37.82-0.63 35.35-1.85 33.9-4.4 32.45-6.95 32.45-10.9L32.45-10.9Q32.45-14.6 33.95-17.3 35.45-20 37.9-21.48 40.35-22.95 43.1-22.95L43.1-22.95Q46.35-22.95 48.02-21.88 49.7-20.8 50.8-19.5L50.8-19.5 50.5-18.65 51.15-21.85 57.65-21.85 57.65 0 50.65 0 50.65-4.75 51.2-3.25Q51.1-3.25 50.6-2.68 50.1-2.1 49.12-1.33 48.15-0.55 46.72 0.03 45.3 0.6 43.35 0.6ZM45.35-5.1L45.35-5.1Q46.6-5.1 47.6-5.48 48.6-5.85 49.35-6.58 50.1-7.3 50.65-8.4L50.65-8.4 50.65-13.75Q50.25-14.85 49.45-15.63 48.65-16.4 47.55-16.82 46.45-17.25 45.1-17.25L45.1-17.25Q43.6-17.25 42.32-16.48 41.05-15.7 40.3-14.35 39.55-13 39.55-11.25L39.55-11.25Q39.55-9.5 40.35-8.1 41.15-6.7 42.47-5.9 43.8-5.1 45.35-5.1ZM64.84-21.85L71.15-21.85 71.8-15.85 71.65-16.75Q72.59-18.7 74.25-20.08 75.9-21.45 77.52-22.2 79.15-22.95 80-22.95L80-22.95 79.65-15.95Q77.2-16.25 75.45-15.15 73.7-14.05 72.75-12.25 71.8-10.45 71.8-8.55L71.8-8.55 71.8 0 64.84 0 64.84-21.85ZM85.34 0L85.34-39.45 92.34-39.45 92.34 0 85.34 0ZM108.74 0.6L108.74 0.6Q105.69 0.6 103.22-0.63 100.74-1.85 99.29-4.4 97.84-6.95 97.84-10.9L97.84-10.9Q97.84-14.6 99.34-17.3 100.84-20 103.29-21.48 105.74-22.95 108.49-22.95L108.49-22.95Q111.74-22.95 113.42-21.88 115.09-20.8 116.19-19.5L116.19-19.5 115.89-18.65 116.54-21.85 123.04-21.85 123.04 0 116.04 0 116.04-4.75 116.59-3.25Q116.49-3.25 115.99-2.68 115.49-2.1 114.52-1.33 113.54-0.55 112.12 0.03 110.69 0.6 108.74 0.6ZM110.74-5.1L110.74-5.1Q111.99-5.1 112.99-5.48 113.99-5.85 114.74-6.58 115.49-7.3 116.04-8.4L116.04-8.4 116.04-13.75Q115.64-14.85 114.84-15.63 114.04-16.4 112.94-16.82 111.84-17.25 110.49-17.25L110.49-17.25Q108.99-17.25 107.72-16.48 106.44-15.7 105.69-14.35 104.94-13 104.94-11.25L104.94-11.25Q104.94-9.5 105.74-8.1 106.54-6.7 107.87-5.9 109.19-5.1 110.74-5.1ZM130.24-21.85L136.59-21.85 137.14-18 137.04-18.3Q138.34-20.5 140.29-21.73 142.24-22.95 144.99-22.95L144.99-22.95Q146.79-22.95 148.16-22.45 149.54-21.95 150.49-20.98 151.44-20 151.79-18.45L151.79-18.45 151.54-18.4Q152.94-20.45 154.91-21.7 156.89-22.95 159.04-22.95L159.04-22.95Q162.29-22.95 164.21-21.13 166.14-19.3 166.19-16.4L166.19-16.4 166.19 0 159.24 0 159.24-13.5Q159.19-14.95 158.79-15.88 158.39-16.8 156.94-16.9L156.94-16.9Q155.24-16.9 154.06-15.73 152.89-14.55 152.31-12.73 151.74-10.9 151.74-8.95L151.74-8.95 151.74 0 144.74 0 144.74-13.5Q144.69-14.95 144.21-15.88 143.74-16.8 142.29-16.9L142.29-16.9Q140.64-16.9 139.51-15.73 138.39-14.55 137.81-12.75 137.24-10.95 137.24-9.05L137.24-9.05 137.24 0 130.24 0 130.24-21.85Z" opacity="1" transform="matrix(1,0,0,1,0,0)" fill="#ffffff" class="wordmark-text-0" data-fill-palette-color="primary" id="text-0"></path></svg></g></svg></g><g transform="matrix(1,0,0,1,2.5,121.62886591245282)"><svg viewBox="0 0 390.52 58.06844389641911" height="58.06844389641911" width="390.52"><g transform="matrix(1,0,0,1,0,0)"><svg width="390.52" viewBox="-1.9800000190734863 -42.04999923706055 375.8980712890625 56.75" height="58.06844389641911" data-palette-color="#ffffff"><path d="M10.6 0L10.6 0Q10.1 0 9.73-0.25 9.35-0.5 9.2-0.95L9.2-0.95 1.1-25.2Q0.9-26.3 1.2-26.83 1.5-27.35 2.25-27.35L2.25-27.35Q2.65-27.35 3.05-27.13 3.45-26.9 3.65-26.45L3.65-26.45 11.05-4.15 10.4-4.15 17.2-26.15Q17.35-26.7 17.75-27.03 18.15-27.35 18.7-27.35L18.7-27.35Q19.25-27.35 19.63-27.03 20-26.7 20.2-26.15L20.2-26.15 27.2-4.15 26.3-4.15 33.7-26.45Q34.1-27.35 35.1-27.35L35.1-27.35Q36-27.35 36.33-26.65 36.65-25.95 36.3-25.2L36.3-25.2 28.25-0.95Q28.1-0.5 27.73-0.25 27.35 0 26.8 0L26.8 0Q26.3 0 25.9-0.25 25.5-0.5 25.4-0.95L25.4-0.95 18.25-23.15 18.9-23.15 12-0.95Q11.8-0.45 11.43-0.23 11.05 0 10.6 0ZM53.05 0.25L53.05 0.25Q49.1 0.25 46.02-1.53 42.95-3.3 41.2-6.45 39.45-9.6 39.45-13.65L39.45-13.65Q39.45-17.75 41.1-20.88 42.75-24 45.65-25.8 48.55-27.6 52.3-27.6L52.3-27.6Q56-27.6 58.85-25.88 61.7-24.15 63.3-21.13 64.9-18.1 64.9-14.15L64.9-14.15Q64.9-13.5 64.5-13.13 64.1-12.75 63.45-12.75L63.45-12.75 41.45-12.75 41.45-15.35 64.25-15.35 62.05-13.7Q62.15-16.95 60.95-19.45 59.75-21.95 57.52-23.38 55.3-24.8 52.3-24.8L52.3-24.8Q49.45-24.8 47.22-23.38 45-21.95 43.72-19.45 42.45-16.95 42.45-13.65L42.45-13.65Q42.45-10.4 43.8-7.9 45.15-5.4 47.55-3.98 49.95-2.55 53.05-2.55L53.05-2.55Q55-2.55 56.97-3.23 58.95-3.9 60.1-5L60.1-5Q60.5-5.4 61.07-5.43 61.65-5.45 62.05-5.1L62.05-5.1Q62.6-4.65 62.62-4.1 62.65-3.55 62.15-3.1L62.15-3.1Q60.55-1.65 57.97-0.7 55.4 0.25 53.05 0.25ZM85.35 0.3L85.35 0.3Q81.45 0.3 78.3-1.5 75.15-3.3 73.32-6.4 71.5-9.5 71.4-13.4L71.4-13.4 71.4-37.55Q71.4-38.25 71.82-38.65 72.25-39.05 72.9-39.05L72.9-39.05Q73.6-39.05 74-38.65 74.4-38.25 74.4-37.55L74.4-37.55 74.4-21.95Q76-24.55 78.87-26.1 81.75-27.65 85.35-27.65L85.35-27.65Q89.35-27.65 92.52-25.83 95.7-24 97.52-20.85 99.35-17.7 99.35-13.7L99.35-13.7Q99.35-9.7 97.52-6.53 95.7-3.35 92.52-1.53 89.35 0.3 85.35 0.3ZM85.35-2.5L85.35-2.5Q88.5-2.5 90.97-3.98 93.45-5.45 94.9-7.98 96.35-10.5 96.35-13.7L96.35-13.7Q96.35-16.9 94.9-19.4 93.45-21.9 90.97-23.38 88.5-24.85 85.35-24.85L85.35-24.85Q82.25-24.85 79.75-23.38 77.25-21.9 75.82-19.4 74.4-16.9 74.4-13.7L74.4-13.7Q74.4-10.5 75.82-7.98 77.25-5.45 79.75-3.98 82.25-2.5 85.35-2.5ZM133.99 0.3L133.99 0.3Q129.99 0.3 126.82-1.53 123.64-3.35 121.82-6.53 119.99-9.7 119.99-13.7L119.99-13.7Q119.99-17.7 121.82-20.85 123.64-24 126.82-25.83 129.99-27.65 133.99-27.65L133.99-27.65Q137.59-27.65 140.47-26.1 143.34-24.55 144.94-21.95L144.94-21.95 144.94-37.55Q144.94-38.25 145.37-38.65 145.79-39.05 146.44-39.05L146.44-39.05Q147.14-39.05 147.54-38.65 147.94-38.25 147.94-37.55L147.94-37.55 147.94-13.4Q147.89-9.5 146.04-6.4 144.19-3.3 141.07-1.5 137.94 0.3 133.99 0.3ZM133.99-2.5L133.99-2.5Q137.14-2.5 139.62-3.98 142.09-5.45 143.52-7.98 144.94-10.5 144.94-13.7L144.94-13.7Q144.94-16.9 143.52-19.4 142.09-21.9 139.62-23.38 137.14-24.85 133.99-24.85L133.99-24.85Q130.89-24.85 128.39-23.38 125.89-21.9 124.44-19.4 122.99-16.9 122.99-13.7L122.99-13.7Q122.99-10.5 124.44-7.98 125.89-5.45 128.39-3.98 130.89-2.5 133.99-2.5ZM169.04 0.25L169.04 0.25Q165.09 0.25 162.01-1.53 158.94-3.3 157.19-6.45 155.44-9.6 155.44-13.65L155.44-13.65Q155.44-17.75 157.09-20.88 158.74-24 161.64-25.8 164.54-27.6 168.29-27.6L168.29-27.6Q171.99-27.6 174.84-25.88 177.69-24.15 179.29-21.13 180.89-18.1 180.89-14.15L180.89-14.15Q180.89-13.5 180.49-13.13 180.09-12.75 179.44-12.75L179.44-12.75 157.44-12.75 157.44-15.35 180.24-15.35 178.04-13.7Q178.14-16.95 176.94-19.45 175.74-21.95 173.51-23.38 171.29-24.8 168.29-24.8L168.29-24.8Q165.44-24.8 163.21-23.38 160.99-21.95 159.71-19.45 158.44-16.95 158.44-13.65L158.44-13.65Q158.44-10.4 159.79-7.9 161.14-5.4 163.54-3.98 165.94-2.55 169.04-2.55L169.04-2.55Q170.99-2.55 172.96-3.23 174.94-3.9 176.09-5L176.09-5Q176.49-5.4 177.06-5.43 177.64-5.45 178.04-5.1L178.04-5.1Q178.59-4.65 178.61-4.1 178.64-3.55 178.14-3.1L178.14-3.1Q176.54-1.65 173.96-0.7 171.39 0.25 169.04 0.25ZM195.79 0.05L195.79 0.05Q194.84 0.05 194.39-1L194.39-1 182.99-25.4Q182.79-25.95 182.99-26.48 183.19-27 183.74-27.25L183.74-27.25Q184.29-27.5 184.81-27.3 185.34-27.1 185.59-26.55L185.59-26.55 196.79-2.35 194.94-2.35 205.94-26.6Q206.19-27.15 206.76-27.35 207.34-27.55 207.89-27.3L207.89-27.3Q208.44-27.05 208.66-26.53 208.89-26 208.64-25.45L208.64-25.45 197.39-1Q196.89 0.05 195.79 0.05ZM225.33 0.25L225.33 0.25Q221.38 0.25 218.31-1.53 215.23-3.3 213.48-6.45 211.73-9.6 211.73-13.65L211.73-13.65Q211.73-17.75 213.38-20.88 215.03-24 217.93-25.8 220.83-27.6 224.58-27.6L224.58-27.6Q228.28-27.6 231.13-25.88 233.98-24.15 235.58-21.13 237.18-18.1 237.18-14.15L237.18-14.15Q237.18-13.5 236.78-13.13 236.38-12.75 235.73-12.75L235.73-12.75 213.73-12.75 213.73-15.35 236.53-15.35 234.33-13.7Q234.43-16.95 233.23-19.45 232.03-21.95 229.81-23.38 227.58-24.8 224.58-24.8L224.58-24.8Q221.73-24.8 219.51-23.38 217.28-21.95 216.01-19.45 214.73-16.95 214.73-13.65L214.73-13.65Q214.73-10.4 216.08-7.9 217.43-5.4 219.83-3.98 222.23-2.55 225.33-2.55L225.33-2.55Q227.28-2.55 229.26-3.23 231.23-3.9 232.38-5L232.38-5Q232.78-5.4 233.36-5.43 233.93-5.45 234.33-5.1L234.33-5.1Q234.88-4.65 234.91-4.1 234.93-3.55 234.43-3.1L234.43-3.1Q232.83-1.65 230.26-0.7 227.68 0.25 225.33 0.25ZM250.18 0L249.18 0Q247.28 0 245.81-1.05 244.33-2.1 243.51-3.95 242.68-5.8 242.68-8.25L242.68-8.25 242.68-37.55Q242.68-38.25 243.11-38.65 243.53-39.05 244.18-39.05L244.18-39.05Q244.88-39.05 245.28-38.65 245.68-38.25 245.68-37.55L245.68-37.55 245.68-8.25Q245.68-5.95 246.66-4.48 247.63-3 249.18-3L249.18-3 250.43-3Q250.98-3 251.33-2.6 251.68-2.2 251.68-1.5L251.68-1.5Q251.68-0.85 251.28-0.43 250.88 0 250.18 0L250.18 0ZM268.18 0.3L268.18 0.3Q264.18 0.3 261-1.53 257.83-3.35 256-6.53 254.18-9.7 254.18-13.65L254.18-13.65Q254.18-17.65 256-20.83 257.83-24 261-25.83 264.18-27.65 268.18-27.65L268.18-27.65Q272.18-27.65 275.33-25.83 278.48-24 280.3-20.83 282.13-17.65 282.13-13.65L282.13-13.65Q282.13-9.7 280.3-6.53 278.48-3.35 275.33-1.53 272.18 0.3 268.18 0.3ZM268.18-2.5L268.18-2.5Q271.33-2.5 273.8-3.98 276.28-5.45 277.7-7.98 279.13-10.5 279.13-13.7L279.13-13.7Q279.13-16.85 277.7-19.38 276.28-21.9 273.8-23.38 271.33-24.85 268.18-24.85L268.18-24.85Q265.08-24.85 262.58-23.38 260.08-21.9 258.63-19.38 257.18-16.85 257.18-13.65L257.18-13.65Q257.18-10.5 258.63-7.98 260.08-5.45 262.58-3.98 265.08-2.5 268.18-2.5ZM291.13 11.7L291.13 11.7Q290.48 11.7 290.05 11.28 289.63 10.85 289.63 10.2L289.63 10.2 289.63-13.95Q289.73-17.9 291.55-20.98 293.38-24.05 296.53-25.85 299.68-27.65 303.58-27.65L303.58-27.65Q307.58-27.65 310.75-25.83 313.93-24 315.75-20.83 317.58-17.65 317.58-13.65L317.58-13.65Q317.58-9.7 315.75-6.53 313.93-3.35 310.75-1.53 307.58 0.3 303.58 0.3L303.58 0.3Q299.98 0.3 297.1-1.25 294.23-2.8 292.63-5.4L292.63-5.4 292.63 10.2Q292.63 10.85 292.23 11.28 291.83 11.7 291.13 11.7ZM303.58-2.5L303.58-2.5Q306.73-2.5 309.2-3.98 311.68-5.45 313.13-7.98 314.58-10.5 314.58-13.65L314.58-13.65Q314.58-16.85 313.13-19.38 311.68-21.9 309.2-23.38 306.73-24.85 303.58-24.85L303.58-24.85Q300.48-24.85 297.98-23.38 295.48-21.9 294.05-19.38 292.63-16.85 292.63-13.65L292.63-13.65Q292.63-10.5 294.05-7.98 295.48-5.45 297.98-3.98 300.48-2.5 303.58-2.5ZM337.17 0.25L337.17 0.25Q333.22 0.25 330.15-1.53 327.07-3.3 325.32-6.45 323.57-9.6 323.57-13.65L323.57-13.65Q323.57-17.75 325.22-20.88 326.87-24 329.77-25.8 332.67-27.6 336.42-27.6L336.42-27.6Q340.12-27.6 342.97-25.88 345.82-24.15 347.42-21.13 349.02-18.1 349.02-14.15L349.02-14.15Q349.02-13.5 348.62-13.13 348.22-12.75 347.57-12.75L347.57-12.75 325.57-12.75 325.57-15.35 348.37-15.35 346.17-13.7Q346.27-16.95 345.07-19.45 343.87-21.95 341.65-23.38 339.42-24.8 336.42-24.8L336.42-24.8Q333.57-24.8 331.35-23.38 329.12-21.95 327.85-19.45 326.57-16.95 326.57-13.65L326.57-13.65Q326.57-10.4 327.92-7.9 329.27-5.4 331.67-3.98 334.07-2.55 337.17-2.55L337.17-2.55Q339.12-2.55 341.1-3.23 343.07-3.9 344.22-5L344.22-5Q344.62-5.4 345.2-5.43 345.77-5.45 346.17-5.1L346.17-5.1Q346.72-4.65 346.75-4.1 346.77-3.55 346.27-3.1L346.27-3.1Q344.67-1.65 342.1-0.7 339.52 0.25 337.17 0.25ZM358.52-16.7L356.52-16.7Q356.82-19.9 358.27-22.38 359.72-24.85 362.02-26.25 364.32-27.65 367.12-27.65L367.12-27.65Q369.02-27.65 370.07-27.2 371.12-26.75 370.87-25.6L370.87-25.6Q370.72-24.85 370.17-24.7 369.62-24.55 368.85-24.68 368.07-24.8 367.12-24.8L367.12-24.8Q364.62-24.8 362.67-23.75 360.72-22.7 359.62-20.88 358.52-19.05 358.52-16.7L358.52-16.7ZM357.02 0L357.02 0Q356.37 0 355.95-0.43 355.52-0.85 355.52-1.5L355.52-1.5 355.52-25.85Q355.52-26.55 355.95-26.95 356.37-27.35 357.02-27.35L357.02-27.35Q357.72-27.35 358.12-26.95 358.52-26.55 358.52-25.85L358.52-25.85 358.52-1.5Q358.52-0.85 358.12-0.43 357.72 0 357.02 0Z" opacity="1" transform="matrix(1,0,0,1,0,0)" fill="#ffffff" class="slogan-text-1" data-fill-palette-color="secondary" id="text-1"></path></svg></g></svg></g></svg></g></svg></g></svg></g></svg></g></svg></g></svg></g><defs></defs></svg><rect width="395.52" height="247.2" fill="none" stroke="none" visibility="hidden"></rect></g></svg></g></svg>